<svg id="Capa_1" data-name="Capa 1" xmlns="http://www.w3.org/2000/svg" viewBox="0 0 176 60"><defs><style>.cls-1{fill:#c81621;}</style></defs><path class="cls-1" d="M165.84,20.3a8,8,0,0,1,1.13-.08,1.94,1.94,0,0,1,1.22.3,1,1,0,0,1,.35.79,1,1,0,0,1-.66.92v0a.93.93,0,0,1,.5.7c.12.43.23.92.3,1.06h-.87a4.32,4.32,0,0,1-.25-.87c-.11-.48-.27-.6-.63-.61h-.25V24h-.84Zm.84,1.62H167c.42,0,.68-.21.68-.54s-.24-.52-.63-.52a1.5,1.5,0,0,0-.39,0Z"/><path class="cls-1" d="M167.18,26.63a4.31,4.31,0,1,1,4.31-4.31,4.32,4.32,0,0,1-4.31,4.31m0-7.52a3.21,3.21,0,1,0,3.21,3.21,3.21,3.21,0,0,0-3.21-3.21"/><path class="cls-1" d="M130.83,28.92V48.74c0,.39-1,.69-3,.92a54.87,54.87,0,0,1-6.21.34,17.21,17.21,0,0,1-4.11-.29c-.61-.19-.92-.51-.92-1V29.87c0-.77,1-1.54,3-2.29a18.26,18.26,0,0,1,6.5-1.13q4.78,0,4.79,2.47"/><path class="cls-1" d="M123.82,5.25h-.18V5.16c-.12-2-.48-2.82-1.22-2.82a4.84,4.84,0,0,0-.74.05c-3.56.54-9.56,4.74-9.56,6.27,0,1.29,6.7,6.33,10.3,6.33,1,0,1.22-1.34,1.27-3.35v-.09h.13c2.11,0,3.83,1.43,3.83,3.19s-1.72,3.2-3.83,3.2a4.51,4.51,0,0,1-1.95-.45l-1.39-.86-.32-.2,0,0h0A3.25,3.25,0,0,0,118.6,16a3.3,3.3,0,0,0-1.93,6v0a14.71,14.71,0,0,0,7.16,2.19c6.32,0,11.46-4.26,11.46-9.5s-5.14-9.49-11.46-9.49"/><path class="cls-1" d="M44.26,11.5a11.23,11.23,0,0,1,5.11,1,3.56,3.56,0,0,1,1.85,3.48c0,3-2.3,4.44-6.91,4.44s-6.91-1.47-6.91-4.44,2.29-4.44,6.86-4.44m6.71,13V48.83c0,.36-.94.65-2.83.86a50.63,50.63,0,0,1-5.83.32,16.54,16.54,0,0,1-3.85-.27c-.58-.18-.86-.49-.86-.91V25.37c0-.72.92-1.44,2.78-2.15a17,17,0,0,1,6.1-1.06c3,0,4.49.78,4.49,2.32"/><path class="cls-1" d="M70.18,46.75V43.88h-.39a3.56,3.56,0,0,1-.7.62,10.21,10.21,0,0,1-2.44,1,14.22,14.22,0,0,1-4.39.64,10.31,10.31,0,0,1-4.13-.74,7.07,7.07,0,0,1-2.61-1.85,8.12,8.12,0,0,1-1.49-3,30.09,30.09,0,0,1-.83-7.9c0-3.81.8-6.75,2.41-8.79a7.32,7.32,0,0,1,2.79-2.1,9.44,9.44,0,0,1,4-.87,10.82,10.82,0,0,1,3.5.48A5.65,5.65,0,0,1,68,22.51a5.17,5.17,0,0,1,1.58,2.42l0,.44H70l.44-1.93c.33-1.38,2.92-2.07,7.8-2.07,2.17,0,3.49.33,4,1a3.1,3.1,0,0,1,.49,1.11,8.68,8.68,0,0,1,.1,1.56V45.71q0,5.84-3.8,8.89c-2.54,2-6.25,3.06-11.16,3.06q-7.8,0-10.61-1.52C56.37,55.67,56,55.2,56,54.7a14.66,14.66,0,0,1,1-4c.65-1.87,1.25-2.81,1.81-2.81a8.92,8.92,0,0,1,1.38.34,25.11,25.11,0,0,0,6.1,1,5.89,5.89,0,0,0,3.16-.59,2.19,2.19,0,0,0,.81-1.88m-2-6.22a1.12,1.12,0,0,0,.88-.39,1.36,1.36,0,0,0,.35-.9V29.07c-.13-.69-.49-1-1.09-1q-1.87,0-1.87,6.18A17.73,17.73,0,0,0,67,38.8c.31,1.15.73,1.73,1.26,1.73"/><path class="cls-1" d="M101.74,46.75V43.88h-.4a3.56,3.56,0,0,1-.7.62,10.21,10.21,0,0,1-2.44,1,14.22,14.22,0,0,1-4.39.64,10.31,10.31,0,0,1-4.13-.74,7.07,7.07,0,0,1-2.61-1.85,8,8,0,0,1-1.48-3,29.61,29.61,0,0,1-.84-7.9c0-3.81.8-6.75,2.42-8.79A7.17,7.17,0,0,1,90,21.79a9.36,9.36,0,0,1,4-.87,10.78,10.78,0,0,1,3.5.48,5.65,5.65,0,0,1,2.08,1.11,5.17,5.17,0,0,1,1.58,2.42l0,.44h.39l.45-1.93q.49-2.07,7.8-2.07c2.17,0,3.49.33,4,1a3.1,3.1,0,0,1,.49,1.11,8.68,8.68,0,0,1,.1,1.56V45.71q0,5.84-3.8,8.89c-2.54,2-6.25,3.06-11.16,3.06q-7.8,0-10.61-1.52c-.83-.47-1.24-.94-1.24-1.44a14.66,14.66,0,0,1,1-4c.65-1.87,1.24-2.81,1.81-2.81a8.92,8.92,0,0,1,1.38.34,25,25,0,0,0,6.1,1,5.87,5.87,0,0,0,3.16-.59,2.19,2.19,0,0,0,.82-1.88m-2-6.22a1.12,1.12,0,0,0,.89-.39,1.36,1.36,0,0,0,.35-.9V29.07c-.13-.69-.49-1-1.08-1C98.65,28,98,30.1,98,34.22a17.73,17.73,0,0,0,.47,4.58c.31,1.15.73,1.73,1.25,1.73"/><path class="cls-1" d="M146.07,38.85q0,3.21,3.06,3.21a12.64,12.64,0,0,0,4.64-1.21c1.91-.81,2.91-1.21,3-1.21.63,0,1.45.94,2.47,2.81a10.24,10.24,0,0,1,1.53,4.15c0,1.29-1.32,2.25-3.95,2.91a31.23,31.23,0,0,1-7.73,1,28.22,28.22,0,0,1-6.32-.59,15.41,15.41,0,0,1-4.14-1.51A11.84,11.84,0,0,1,134,43.61a12.69,12.69,0,0,1-.94-2.69,20.06,20.06,0,0,1-.49-4.49q0-9,4.69-12.39a14.13,14.13,0,0,1,5.19-2.42,29,29,0,0,1,6.76-.7q12.48,0,12.49,8.7,0,9.24-14,9.23Zm-.1-7.21V34.9a2.87,2.87,0,0,0,2.34-1.13,4.28,4.28,0,0,0,.92-2.77c0-2-.51-3-1.53-3s-1.73,1.2-1.73,3.6"/><path class="cls-1" d="M19.44,49.94H8.65a9.93,9.93,0,0,1-3.31-.35,1.14,1.14,0,0,1-.83-1.08V16.82c0-1.57,4.75-2.37,14.24-2.37Q26.92,14.45,30,16a7.69,7.69,0,0,1,4,4.13,10.92,10.92,0,0,1,.49,3.45,10.35,10.35,0,0,1-1.3,5.77,4.53,4.53,0,0,1-2.84,2.17,6.81,6.81,0,0,1,3.85,2.27c1,1.17,1.52,3.18,1.52,6q0,4.92-3,7.29-2.61,2.07-8,2.62c-1.51.13-3.3.19-5.37.19m0-21.49c1.68,0,2.51-1.11,2.51-3.35a3.92,3.92,0,0,0-.66-2.49,2,2,0,0,0-1.51-.81H18.26v6.65ZM18.26,42.6h1.23c1.68,0,2.51-1.12,2.51-3.36a3.91,3.91,0,0,0-.66-2.48,2,2,0,0,0-1.51-.82H18.26Z"/></svg>